# xmcd
# Copyright (C) 1995-1998 Ti Kan
#
# Track frame offsets:
#       150
#       750
#       2068
#       3028
#       4019
#       5400
#       6699
#       7449
#       8199
#       9162
#
# Disc length: 140 seconds
#
# Revision: 1
# Processed by: cddbd v1.5.2PL0 Copyright (c) Steve Scherf et al.
# Submitted via: CD-Import v1.0
#
DISCID=53008a0a
DTITLE=Jingle Musik À Gogo - 
DYEAR=1900
DGENRE=
TTITLE0=Allgemeiner Stadtfilter Jingle 1
TTITLE1=Allgemeiner Stadtfilter Jingle 2
TTITLE2=Allgemeiner Stadtfilter Jingle 3
TTITLE3=Allgemeiner Stadtfilter Jingle 4
TTITLE4=Allgemeiner Stadtfilter Jingle 5
TTITLE5=Allgemeiner Stadtfilter Jingle 6
TTITLE6=Allgemeiner Stadtfilter Jingle 7
TTITLE7=Allgemeiner Stadtfilter Jingle 8
TTITLE8=Jingle Musik À Gogo 1
TTITLE9=Jingle Musik À Gogo 2
EXTD=
EXTT0=
EXTT1=
EXTT2=
EXTT3=
EXTT4=
EXTT5=
EXTT6=
EXTT7=
EXTT8=
EXTT9=
PLAYORDER=
